<?xml version="1.0" standalone="no"?>
<!DOCTYPE svg PUBLIC "-//W3C//DTD SVG 20010904//EN"
 "http://www.w3.org/TR/2001/REC-SVG-20010904/DTD/svg10.dtd">
<svg version="1.0" xmlns="http://www.w3.org/2000/svg"
 width="339.000000pt" height="339.000000pt" viewBox="0 0 339.000000 339.000000"
 preserveAspectRatio="xMidYMid meet">
<metadata>
Created by potrace 1.11, written by Peter Selinger 2001-2013
</metadata>
<g transform="translate(0.000000,339.000000) scale(0.100000,-0.100000)"
fill="#000000" stroke="none">
<path d="M127 3375 c-46 -16 -93 -65 -109 -114 -14 -46 -20 -386 -7 -465 19
-119 93 -261 189 -364 22 -24 40 -47 40 -52 0 -4 -14 -35 -30 -69 -48 -97
-118 -299 -136 -395 -2 -12 -6 -32 -10 -46 -17 -73 -24 -116 -20 -127 3 -7 1
-15 -3 -17 -14 -9 -35 -238 -35 -376 -1 -77 3 -100 18 -123 24 -35 69 -59 111
-59 l32 0 -29 -76 c-64 -167 -88 -400 -50 -484 22 -47 62 -78 104 -80 36 -1
108 19 108 30 0 14 110 93 111 80 3 -57 38 -178 71 -243 52 -106 137 -199 257
-284 43 -30 115 -34 154 -8 46 30 59 69 63 196 2 64 6 125 8 136 2 11 5 30 5
43 1 27 20 28 47 4 10 -10 33 -26 50 -36 18 -11 39 -36 49 -60 49 -113 184
-256 296 -314 114 -57 249 -79 384 -60 190 26 381 174 476 371 13 26 26 47 30
47 4 0 30 18 58 40 54 43 52 44 66 -29 4 -19 9 -84 10 -146 4 -154 34 -205
123 -210 58 -4 134 44 234 147 43 44 108 129 108 142 0 3 11 30 25 60 23 49
39 109 48 175 2 14 8 26 13 28 5 2 40 -22 78 -52 38 -30 77 -56 87 -56 66 -5
82 -1 115 29 43 38 53 75 52 200 0 117 -24 234 -70 348 l-25 61 33 1 c68 3
116 45 129 114 8 40 -10 83 -48 119 -81 77 -349 150 -441 119 -63 -21 -100
-83 -86 -147 4 -17 28 -62 53 -100 56 -86 110 -189 141 -275 l25 -66 -67 33
c-88 44 -128 50 -171 28 -68 -35 -75 -55 -76 -220 -1 -94 -6 -163 -15 -190
-14 -47 -30 -57 -30 -20 0 58 -101 326 -143 378 -39 50 -108 64 -165 35 -44
-23 -64 -58 -74 -127 -13 -96 -50 -150 -131 -193 -87 -46 -204 -22 -270 54
-18 21 -38 55 -46 76 l-13 37 63 62 c35 34 92 80 126 103 34 23 65 48 69 54 9
14 14 125 14 319 l0 125 77 42 c235 127 246 135 288 206 13 23 31 69 38 103
17 71 8 100 -35 121 -34 16 19 42 -563 -278 -16 -9 -39 -32 -50 -51 -18 -31
-20 -53 -21 -227 0 -105 -3 -195 -6 -198 -3 -3 -35 -12 -69 -20 -53 -13 -74
-13 -124 -3 -33 6 -64 16 -69 20 -6 5 -10 95 -11 207 0 188 -1 199 -23 229
-12 17 -35 38 -50 46 -53 26 -228 120 -302 162 -182 102 -236 126 -263 116
-55 -21 -60 -95 -13 -196 22 -48 83 -125 99 -125 3 0 52 -26 109 -57 57 -32
120 -67 140 -77 l37 -20 3 -216 c2 -170 6 -221 17 -234 8 -10 44 -37 80 -60
66 -42 171 -138 171 -155 0 -20 -31 -81 -57 -111 -65 -78 -197 -99 -286 -47
-71 43 -105 97 -114 184 -9 84 -52 135 -124 147 -27 4 -82 -16 -104 -38 -41
-40 -135 -275 -151 -375 -4 -22 -10 -41 -14 -41 -20 0 -38 128 -37 249 2 142
-8 170 -73 204 -45 23 -84 16 -172 -28 l-67 -34 19 53 c28 82 84 193 141 280
29 43 55 93 59 110 9 42 -7 90 -42 123 -26 25 -36 28 -96 28 -37 -1 -89 -5
-116 -9 l-49 -9 7 74 c4 40 9 75 11 78 1 4 6 29 9 56 25 195 133 499 219 616
30 41 34 111 9 151 -12 19 -33 40 -47 48 -44 23 -143 137 -174 198 -37 73 -42
100 -43 237 -1 155 -3 146 27 135 14 -5 36 -12 48 -14 21 -4 122 -33 267 -77
36 -11 70 -21 77 -23 26 -5 21 -14 -31 -52 -66 -47 -88 -82 -89 -138 -1 -68
55 -125 125 -128 39 -1 60 9 142 69 146 108 360 178 526 173 57 -1 82 -4 190
-16 87 -10 178 -10 275 1 98 11 283 12 349 2 105 -17 254 -80 355 -151 100
-71 114 -78 153 -78 95 2 157 107 113 192 -8 16 -40 48 -71 72 l-56 42 74 23
c153 49 359 105 371 100 12 -5 14 -189 3 -267 -14 -89 -112 -230 -206 -295
-69 -48 -89 -116 -52 -182 9 -18 33 -62 53 -98 31 -55 104 -226 113 -265 22
-91 44 -145 67 -170 62 -64 166 -46 208 38 10 20 17 48 14 61 -15 95 -75 274
-129 385 -19 39 -34 73 -34 77 0 4 18 27 41 51 92 98 174 255 187 362 12 89 8
418 -6 462 -19 64 -77 117 -142 129 -22 4 -142 -24 -320 -75 -486 -140 -605
-171 -634 -165 -123 27 -315 37 -391 21 -60 -13 -283 -14 -385 -2 -131 15
-229 12 -360 -11 -69 -13 -54 -16 -360 72 -69 19 -154 44 -190 55 -108 32
-407 110 -419 110 -3 -1 -23 -7 -44 -15z m1603 -2885 c32 -27 140 -86 198
-107 22 -8 21 -9 -15 -37 -123 -98 -302 -100 -434 -4 -30 21 -39 33 -29 36 77
23 215 104 228 134 6 13 16 9 52 -22z"/>
<path d="M1618 2705 c-2 -1 -43 -6 -92 -9 -49 -4 -92 -9 -95 -11 -3 -1 -24 -6
-46 -9 -22 -4 -74 -16 -115 -27 -41 -12 -79 -22 -85 -23 -5 -2 -19 -6 -30 -10
-11 -5 -38 -15 -60 -23 -83 -31 -104 -45 -123 -84 -45 -90 14 -189 111 -189
19 0 64 11 100 25 90 34 210 66 302 81 64 11 355 11 420 0 82 -13 202 -45 288
-77 95 -36 136 -38 182 -9 86 53 72 194 -24 232 -145 57 -250 88 -351 104 -19
3 -42 7 -50 9 -40 11 -323 28 -332 20z"/>
<path d="M1585 2223 c-127 -17 -235 -67 -260 -120 -24 -51 -13 -111 28 -150
44 -43 90 -47 177 -17 112 39 241 36 369 -10 130 -47 233 83 157 199 -18 27
-82 58 -167 81 -61 16 -238 26 -304 17z"/>
</g>
</svg>
