<?xml version="1.0" encoding="UTF-8"?>
<svg width="52px" height="74px" viewBox="0 0 52 74" version="1.1" xmlns="http://www.w3.org/2000/svg" xmlns:xlink="http://www.w3.org/1999/xlink">
    <title>Pin</title>
    <defs>
        <circle id="path-1" cx="26.5" cy="25.5" r="22.5"></circle>
    </defs>
    <g id="Page-1" stroke="none" stroke-width="1" fill="none" fill-rule="evenodd">
        <g id="Pin">
            <g id="placeholder_blue" fill-rule="nonzero">
                <path d="M26,0 C11.6563778,0 0,11.6636768 0,26.0156359 C0,30.8718879 1.34362222,35.5982063 3.90014444,39.6739893 L24.2374889,72.9760266 C24.5844444,73.5396987 25.1044444,73.8867184 25.7112556,73.9734372 C26.5343,74.1033708 27.4447333,73.7566402 27.9212556,72.9328118 L48.3168111,39.3269696 C50.7431889,35.3380499 52,30.6985949 52,26.0156359 C52,11.6636768 40.3436222,0 26,0 Z M26,39 C18.7202889,39 13,33.1066667 13,26 C13,18.8498556 18.8498556,13 26,13 C33.1501444,13 39,18.8498556 39,26 C39,33.0633333 33.3665222,39 26,39 Z" id="Shape" fill="#0700FD"></path>
                <path d="M26,0 L26,13.0079363 C33.1501444,13.0079363 39,18.8613631 39,26.0158726 C39,33.083518 33.3665222,39.0238089 26,39.0238089 L26,74 C26.7394111,74.0166028 27.4997667,73.6619197 27.9211111,72.9334753 L48.3166667,39.3273274 C50.7431889,35.3383714 52,30.6988742 52,26.0158726 C52,11.6637829 40.3436222,0 26,0 Z" id="Path" fill="#1700E5"></path>
            </g>
            <g id="placeholder_green" fill-rule="nonzero">
                <path d="M26,0 C11.6563778,0 0,11.6636768 0,26.0156359 C0,30.8718879 1.34362222,35.5982063 3.90014444,39.6739893 L24.2374889,72.9760266 C24.5844444,73.5396987 25.1044444,73.8867184 25.7112556,73.9734372 C26.5343,74.1033708 27.4447333,73.7566402 27.9212556,72.9328118 L48.3168111,39.3269696 C50.7431889,35.3380499 52,30.6985949 52,26.0156359 C52,11.6636768 40.3436222,0 26,0 Z M26,39 C18.7202889,39 13,33.1066667 13,26 C13,18.8498556 18.8498556,13 26,13 C33.1501444,13 39,18.8498556 39,26 C39,33.0633333 33.3665222,39 26,39 Z" id="Shape" fill="#00FD00"></path>
                <path d="M26,0 L26,13.0079363 C33.1501444,13.0079363 39,18.8613631 39,26.0158726 C39,33.083518 33.3665222,39.0238089 26,39.0238089 L26,74 C26.7394111,74.0166028 27.4997667,73.6619197 27.9211111,72.9334753 L48.3166667,39.3273274 C50.7431889,35.3383714 52,30.6988742 52,26.0158726 C52,11.6637829 40.3436222,0 26,0 Z" id="Path" fill="#0BE500"></path>
            </g>
            <circle id="Oval" fill="#FFFFFF" cx="26.5" cy="25.5" r="22.5"></circle>
            <mask id="mask-2" fill="white">
                <use xlink:href="#path-1"></use>
            </mask>
            <use id="Oval-Copy-2" fill="#FFFFFF" xlink:href="#path-1"></use>
            <g id="doctor" mask="url(#mask-2)" fill-rule="nonzero">
                <g transform="translate(3.000000, 10.000000)">
                    <path d="M24,21 L24,39 L42,39 C42,29.0592632 33.9407368,21 24,21 Z" id="Path" fill="#0B389C"></path>
                    <path d="M13,25.8745895 L13,39 L25,39 L25,21 C20.3577538,21 16.1373538,22.8521053 13,25.8745895 Z" id="Path" fill="#4370D9"></path>
                    <path d="M34,9.5 C34,4.25364762 29.5224762,0 24,0 L24,19 C29.5224762,19 34,14.7463524 34,9.5 Z" id="Path" fill="#FFB743"></path>
                    <path d="M25,19 L25,0 C19.4775238,0 15,4.25364762 15,9.5 C15,14.7463524 19.4775238,19 25,19 Z" id="Path" fill="#FFD152"></path>
                    <polygon id="Path" fill="#4370D9" points="13 25 9.28571429 25 9.28571429 27.625 3.71428571 27.625 3.71428571 25 0 25 0 39 13 39"></polygon>
                    <rect id="Rectangle" fill="#EF9E8F" x="3" y="22" width="6" height="2"></rect>
                    <rect id="Rectangle" fill="#FFFFFF" x="3" y="25" width="6" height="2"></rect>
                </g>
            </g>
        </g>
    </g>
</svg>