<?xml version="1.0" encoding="UTF-8"?>
<svg width="52px" height="74px" viewBox="0 0 52 74" version="1.1" xmlns="http://www.w3.org/2000/svg" xmlns:xlink="http://www.w3.org/1999/xlink">
    <title>Pin</title>
    <defs>
        <circle id="path-1" cx="26.5" cy="25.5" r="22.5"></circle>
    </defs>
    <g id="Page-1" stroke="none" stroke-width="1" fill="none" fill-rule="evenodd">
        <g id="Pin">
            <g id="placeholder_blue" fill-rule="nonzero">
                <path d="M26,0 C11.6563778,0 0,11.6636768 0,26.0156359 C0,30.8718879 1.34362222,35.5982063 3.90014444,39.6739893 L24.2374889,72.9760266 C24.5844444,73.5396987 25.1044444,73.8867184 25.7112556,73.9734372 C26.5343,74.1033708 27.4447333,73.7566402 27.9212556,72.9328118 L48.3168111,39.3269696 C50.7431889,35.3380499 52,30.6985949 52,26.0156359 C52,11.6636768 40.3436222,0 26,0 Z M26,39 C18.7202889,39 13,33.1066667 13,26 C13,18.8498556 18.8498556,13 26,13 C33.1501444,13 39,18.8498556 39,26 C39,33.0633333 33.3665222,39 26,39 Z" id="Shape" fill="#0700FD"></path>
                <path d="M26,0 L26,13.0079363 C33.1501444,13.0079363 39,18.8613631 39,26.0158726 C39,33.083518 33.3665222,39.0238089 26,39.0238089 L26,74 C26.7394111,74.0166028 27.4997667,73.6619197 27.9211111,72.9334753 L48.3166667,39.3273274 C50.7431889,35.3383714 52,30.6988742 52,26.0158726 C52,11.6637829 40.3436222,0 26,0 Z" id="Path" fill="#1700E5"></path>
            </g>
            <circle id="Oval" fill="#FFFFFF" cx="26.5" cy="25.5" r="22.5"></circle>
            <mask id="mask-2" fill="white">
                <use xlink:href="#path-1"></use>
            </mask>
            <use id="Oval-Copy-2" fill="#FFFFFF" xlink:href="#path-1"></use>
            <g id="store" mask="url(#mask-2)" fill-rule="nonzero">
                <g transform="translate(8.000000, 14.000000)">
                    <rect id="Rectangle" fill="#FFE1B2" x="3" y="5" width="33" height="23"></rect>
                    <rect id="Rectangle" fill="#FFB980" x="3" y="25" width="33" height="3"></rect>
                    <rect id="Rectangle" fill="#FFB980" x="3" y="3" width="33" height="5"></rect>
                    <path d="M14.4375,9 L6.5625,9 C6.25185937,9 6,9.27442742 6,9.61290323 L6,28 L15,28 L15,9.61290323 C15,9.27442742 14.7481406,9 14.4375,9 Z" id="Path" fill="#7E5C62"></path>
                    <path d="M37.40625,29 L0.59375,29 C0.265554687,29 0,28.776375 0,28.5 C0,28.223625 0.265554687,28 0.59375,28 L37.40625,28 C37.7344453,28 38,28.223625 38,28.5 C38,28.776375 37.7344453,29 37.40625,29 Z" id="Path" fill="#5C546A"></path>
                    <path d="M13.5,21 C13.223625,21 13,20.776375 13,20.5 L13,19.5 C13,19.223625 13.223625,19 13.5,19 C13.776375,19 14,19.223625 14,19.5 L14,20.5 C14,20.776375 13.776375,21 13.5,21 Z" id="Path" fill="#5C546A"></path>
                    <path d="M2.5,7 L2.5,7 C1.6715625,7 1,6.21651042 1,5.25 L1,1.16666667 C1,0.522302083 1.4476875,0 2,0 L4,0 L4,5.25 C4,6.21651042 3.3284375,7 2.5,7 Z" id="Path" fill="#FF4F19"></path>
                    <path d="M6.5,7 L6.5,7 C5.6715625,7 5,6.21651042 5,5.25 L5,0 L8,0 L8,5.25 C8,6.21651042 7.3284375,7 6.5,7 Z" id="Path" fill="#E9001E"></path>
                    <path d="M9.5,7 L9.5,7 C8.6715625,7 8,6.21651042 8,5.25 L8,0 L11,0 L11,5.25 C11,6.21651042 10.3284375,7 9.5,7 Z" id="Path" fill="#FF4F19"></path>
                    <path d="M13.5,7 L13.5,7 C12.6715625,7 12,6.21651042 12,5.25 L12,0 L15,0 L15,5.25 C15,6.21651042 14.3284375,7 13.5,7 Z" id="Path" fill="#E9001E"></path>
                    <path d="M16.5,7 L16.5,7 C15.6715625,7 15,6.21651042 15,5.25 L15,0 L18,0 L18,5.25 C18,6.21651042 17.3284375,7 16.5,7 Z" id="Path" fill="#FF4F19"></path>
                    <path d="M21.5,7 L21.5,7 C20.6715625,7 20,6.21651042 20,5.25 L20,0 L23,0 L23,5.25 C23,6.21651042 22.3284375,7 21.5,7 Z" id="Path" fill="#E9001E"></path>
                    <path d="M24.5,7 L24.5,7 C23.6715625,7 23,6.21651042 23,5.25 L23,0 L26,0 L26,5.25 C26,6.21651042 25.3284375,7 24.5,7 Z" id="Path" fill="#FF4F19"></path>
                    <path d="M28.5,7 L28.5,7 C27.6715625,7 27,6.21651042 27,5.25 L27,0 L30,0 L30,5.25 C30,6.21651042 29.3284375,7 28.5,7 Z" id="Path" fill="#E9001E"></path>
                    <path d="M31.5,7 L31.5,7 C30.6715625,7 30,6.21651042 30,5.25 L30,0 L33,0 L33,5.25 C33,6.21651042 32.3284375,7 31.5,7 Z" id="Path" fill="#FF4F19"></path>
                    <path d="M35.5,7 L35.5,7 C34.6715625,7 34,6.21651042 34,5.25 L34,0 L36,0 C36.5523125,0 37,0.522302083 37,1.16666667 L37,5.25 C37,6.21651042 36.3284375,7 35.5,7 Z" id="Path" fill="#E9001E"></path>
                    <path d="M32.4074074,10 L17.5925926,10 C17.2653333,10 17,10.2645795 17,10.5909091 L17,22.4090909 C17,22.7354205 17.2653333,23 17.5925926,23 L32.4074074,23 C32.7346667,23 33,22.7354205 33,22.4090909 L33,10.5909091 C33,10.2645795 32.7346667,10 32.4074074,10 Z" id="Path" fill="#53DCFF"></path>
                    <path d="M29.3769517,23 L32.4250499,23 C32.7425661,23 33,22.7354205 33,22.4090909 L33,21.7096023 L21.6066443,10 L17.4763462,10 C17.2725982,10 17.1021255,10.1152273 17,10.2795 L29.3769517,23 Z" id="Path" fill="#B3F4FF"></path>
                    <polygon id="Path" fill="#FFFFFF" points="24 11 33 20 33 17.3190599 26.6809401 11"></polygon>
                    <path d="M32.8275862,23 L18.1724138,23 C17.5261207,23 17,22.4764583 17,21.8333333 L17,10.1666667 C17,9.52354167 17.5261207,9 18.1724138,9 L32.8275862,9 C33.4738793,9 34,9.52354167 34,10.1666667 L34,21.8333333 C34,22.4764583 33.4738793,23 32.8275862,23 Z M18.1724138,10.1666667 L18.1724138,21.8333333 L32.8287586,21.8333333 L32.8275862,10.1666667 L18.1724138,10.1666667 Z" id="Shape" fill="#7E5C62"></path>
                    <path d="M13.4166667,17 L7.58333333,17 C7.2611875,17 7,16.7150682 7,16.3636364 L7,10.6363636 C7,10.2849318 7.2611875,10 7.58333333,10 L13.4166667,10 C13.7388125,10 14,10.2849318 14,10.6363636 L14,16.3636364 C14,16.7150682 13.7388125,17 13.4166667,17 Z" id="Path" fill="#53DCFF"></path>
                    <path d="M10.5072187,10 L7.58333333,10 C7.2611875,10 7,10.2849318 7,10.6363636 L7,11.5737273 L11.9740833,17 L13.4166667,17 C13.7388125,17 14,16.7150682 14,16.3636364 L14,13.8103068 L10.5072187,10 Z" id="Path" fill="#B3F4FF"></path>
                </g>
            </g>
        </g>
    </g>
</svg>