<?xml version="1.0" ?><!DOCTYPE svg  PUBLIC '-//W3C//DTD SVG 1.1//EN'  'http://www.w3.org/Graphics/SVG/1.1/DTD/svg11.dtd'><svg id="Layer_1" style="enable-background:new 0 0 512 512;" version="1.1" viewBox="0 0 512 512" xml:space="preserve" xmlns="http://www.w3.org/2000/svg" xmlns:xlink="http://www.w3.org/1999/xlink"><style type="text/css">
	.st0{fill:#EEEDF2;}
	.st1{fill:none;stroke:#1E247E;stroke-width:6;stroke-linecap:round;stroke-miterlimit:10;}
	.st2{fill:#EFC12F;stroke:#1E247E;stroke-width:6;stroke-linecap:round;stroke-miterlimit:10;}
	.st3{fill:none;stroke:#1E247E;stroke-width:3;stroke-linecap:round;stroke-miterlimit:10;}
	.st4{fill:#FFFFFF;stroke:#1E247E;stroke-width:3;stroke-linecap:round;stroke-miterlimit:10;}
	.st5{fill:#FCF5F2;stroke:#1E247E;stroke-width:5;stroke-linecap:round;stroke-miterlimit:10;}
	.st6{fill:#FCF5F2;stroke:#1E247E;stroke-width:6;stroke-linecap:round;stroke-miterlimit:10;}
	.st7{fill:#1E247E;}
	.st8{fill:none;stroke:#1E247E;stroke-width:4;stroke-linecap:round;stroke-miterlimit:10;}
	.st9{fill:#EAB8B1;}
	.st10{fill:#DC9695;stroke:#1E247E;stroke-width:4;stroke-linecap:round;stroke-miterlimit:10;}
	.st11{fill:#EECED1;stroke:#1E247E;stroke-width:3;stroke-linecap:round;stroke-miterlimit:10;}
	.st12{fill:#CB7272;stroke:#1E247E;stroke-width:3;stroke-linecap:round;stroke-miterlimit:10;}
	.st13{fill:#D3D5E7;stroke:#1E247E;stroke-width:6;stroke-linecap:round;stroke-miterlimit:10;}
	.st14{fill:#D3D5E7;}
	.st15{fill:#FFFFFF;stroke:#1E247E;stroke-width:5;stroke-linecap:round;stroke-miterlimit:10;}
	.st16{fill:#FFFFFF;stroke:#1E247E;stroke-width:4;stroke-linecap:round;stroke-miterlimit:10;}
	.st17{fill:#ECECEE;}
	.st18{fill:#DA867D;stroke:#1E247E;stroke-width:4;stroke-linecap:round;stroke-miterlimit:10;}
	.st19{fill:#FCF5F2;stroke:#1E247E;stroke-width:4;stroke-linecap:round;stroke-miterlimit:10;}
	.st20{fill:#69AEF8;stroke:#1E247E;stroke-width:6;stroke-linecap:round;stroke-miterlimit:10;}
	.st21{opacity:0.4;fill:#FFFFFF;}
	.st22{opacity:0.7;fill:#FFFFFF;}
	.st23{fill:#69ADF7;stroke:#1E247E;stroke-width:2.5;stroke-linecap:round;stroke-miterlimit:10;}
	.st24{fill:none;stroke:#FFFFFF;stroke-width:7;stroke-linecap:round;stroke-miterlimit:10;}
	.st25{fill:#FFFFFF;stroke:#1E247E;stroke-width:6;stroke-linecap:round;stroke-miterlimit:10;}
	.st26{fill:#DBE7FE;}
	.st27{fill:#D3D5E7;stroke:#1E247E;stroke-width:5;stroke-linecap:round;stroke-miterlimit:10;}
	.st28{fill:#DD9796;stroke:#1E247E;stroke-width:3;stroke-linecap:round;stroke-miterlimit:10;}
	.st29{fill:#EECED1;stroke:#1E247E;stroke-width:2.5;stroke-linecap:round;stroke-miterlimit:10;}
	.st30{fill:#CB7272;stroke:#1E247E;stroke-width:2.5;stroke-linecap:round;stroke-miterlimit:10;}
	.st31{fill:#DBE7FE;stroke:#1E247E;stroke-width:5;stroke-linecap:round;stroke-miterlimit:10;}
	.st32{fill:#69AEF8;stroke:#1E247E;stroke-width:5;stroke-linecap:round;stroke-miterlimit:10;}
	.st33{fill:#DAE6FD;stroke:#1E247E;stroke-width:6;stroke-miterlimit:10;}
	.st34{fill:#FFFFFF;stroke:#1E247E;stroke-width:6;stroke-miterlimit:10;}
	.st35{opacity:0.69;fill:#FFFFFF;}
	.st36{opacity:0.95;fill:#FFFFFF;}
	.st37{fill:#DA867D;stroke:#1E247E;stroke-width:6;stroke-linecap:round;stroke-miterlimit:10;}
	.st38{fill:#F0C330;stroke:#1E247E;stroke-width:6;stroke-linecap:round;stroke-miterlimit:10;}
	.st39{fill:#1E247E;stroke:#1E247E;stroke-width:3;stroke-linecap:round;stroke-miterlimit:10;}
	.st40{fill:#FFFFFF;}
	.st41{fill:#DBE7FE;stroke:#1E247E;stroke-width:6;stroke-linecap:round;stroke-miterlimit:10;}
	.st42{fill:#F1F6FF;}
	.st43{fill:#F0C330;stroke:#1E247E;stroke-width:5;stroke-linecap:round;stroke-miterlimit:10;}
	.st44{fill:none;stroke:#1E247E;stroke-width:5;stroke-linecap:round;stroke-miterlimit:10;}
	.st45{fill:#79CAA1;stroke:#1E247E;stroke-width:5;stroke-linecap:round;stroke-miterlimit:10;}
	.st46{fill:#E09287;stroke:#1E247E;stroke-width:5;stroke-linecap:round;stroke-miterlimit:10;}
	.st47{fill:#DA867D;stroke:#1E247E;stroke-width:5;stroke-linecap:round;stroke-miterlimit:10;}
	.st48{fill:#69AEF8;stroke:#1E247E;stroke-width:5;stroke-miterlimit:10;}
	.st49{fill:#D2D4E6;stroke:#1E247E;stroke-width:5;stroke-linecap:round;stroke-miterlimit:10;}
	.st50{fill:#79CAA1;stroke:#1E247E;stroke-width:5;stroke-miterlimit:10;}
	.st51{fill:#F0C330;stroke:#1E247E;stroke-width:6;stroke-miterlimit:10;}
	.st52{fill:#EEEDF2;stroke:#FFFFFF;stroke-miterlimit:10;}
	.st53{opacity:0.3;fill:#A2655F;}
	.st54{fill:#79CAA1;stroke:#1E247E;stroke-width:4;stroke-linecap:round;stroke-miterlimit:10;}
	.st55{fill:#F0C330;stroke:#1E247E;stroke-width:4.5;stroke-linecap:round;stroke-miterlimit:10;}
	.st56{fill:#D2D4E6;}
	.st57{fill:#FFFFFF;stroke:#1E247E;stroke-width:5.7826;stroke-linejoin:round;stroke-miterlimit:10;}
	.st58{fill:#DA867D;stroke:#1E247E;stroke-width:5.7826;stroke-linejoin:round;stroke-miterlimit:10;}
	.st59{fill:none;stroke:#1E247E;stroke-width:2.8913;stroke-linecap:round;stroke-linejoin:round;stroke-miterlimit:10;}
	.st60{fill:none;stroke:#1E247E;stroke-width:2.4094;stroke-linecap:round;stroke-miterlimit:10;}
	.st61{fill:#EBEBED;}
	.st62{fill:#FBF2ED;stroke:#1E247E;stroke-width:4.5;stroke-linecap:round;stroke-miterlimit:10;}
	.st63{fill:#D3D5E7;stroke:#1E247E;stroke-width:4.5;stroke-linecap:round;stroke-miterlimit:10;}
	.st64{fill:none;stroke:#1E247E;stroke-width:2.5;stroke-linecap:round;stroke-miterlimit:10;}
	.st65{fill:#DA867D;stroke:#1E247E;stroke-width:4.5;stroke-linecap:round;stroke-miterlimit:10;}
	.st66{fill:none;stroke:#FFFFFF;stroke-width:4;stroke-linecap:round;stroke-linejoin:round;stroke-miterlimit:10;}
	.st67{fill:none;stroke:#FFFFFF;stroke-width:3;stroke-linecap:round;stroke-miterlimit:10;}
	.st68{fill:#79CAA1;stroke:#1E247E;stroke-width:6;stroke-linecap:round;stroke-miterlimit:10;}
	.st69{opacity:0.3;fill:#FFFFFF;}
	.st70{fill:none;stroke:#FFFFFF;stroke-width:6;stroke-linecap:round;stroke-miterlimit:10;}
	.st71{fill:#DBE7FE;stroke:#1E247E;stroke-width:6;stroke-miterlimit:10;}
	.st72{fill:#DA867D;stroke:#1E247E;stroke-width:5;stroke-miterlimit:10;}
	.st73{fill:#F5F5F7;stroke:#1E247E;stroke-width:5;stroke-miterlimit:10;}
	.st74{fill:#D5D6DE;stroke:#1E247E;stroke-width:5;stroke-miterlimit:10;}
	.st75{fill:#D3D5E7;stroke:#1E247E;stroke-width:3;stroke-linecap:round;stroke-miterlimit:10;}
	.st76{fill:#79CAA1;}
	.st77{fill:none;stroke:#1E247E;stroke-width:2.7;stroke-linecap:round;stroke-miterlimit:10;}
	.st78{fill:#69AEF8;}
</style><g><g id="Calendar_and_alarm_clock"><circle class="st52" cx="254.7" cy="242.6" id="Background_5_" r="215.5"/><g id="Bottom_line_1_"><line class="st1" id="Right_22_" x1="451.5" x2="470.3" y1="458.4" y2="458.4"/><line class="st1" id="Middle_13_" x1="64.9" x2="441.9" y1="458.7" y2="458.7"/><line class="st1" id="Left_23_" x1="40.3" x2="51.9" y1="458.7" y2="458.7"/></g><g id="Calendar"><path class="st14" d="M423.6,239.3v183.6c0,13.5-10.9,24.4-24.4,24.4H131.7c-13.5,0-24.4-10.9-24.4-24.4V239.3      c0-11.9,9.6-21.5,21.5-21.5h273.2C413.9,217.8,423.6,227.5,423.6,239.3z" id="Shadow_20_"/><path class="st25" d="M410.9,250.7v183.6c0,13.5-10.9,24.4-24.4,24.4H119c-13.5,0-24.4-10.9-24.4-24.4V250.7      c0-11.9,9.6-21.5,21.5-21.5h273.2C401.3,229.2,410.9,238.8,410.9,250.7z" id="Shape_28_"/><g id="Content_2_"><g id="Days"><circle class="st14" cx="361.2" cy="418.9" id="_x31_4" r="13.3"/><circle class="st17" cx="308.5" cy="418.9" id="_x31_3" r="13.3"/><circle class="st17" cx="252.8" cy="418.9" id="_x31_2" r="13.3"/><circle class="st17" cx="197.1" cy="418.9" id="_x31_1" r="13.3"/><circle class="st17" cx="144.3" cy="418.9" id="_x31_0" r="13.3"/><circle class="st17" cx="361.2" cy="369.1" id="_x39_" r="13.3"/><circle class="st17" cx="308.5" cy="369.1" id="_x38_" r="13.3"/><circle class="st14" cx="197.1" cy="369.1" id="_x37_" r="13.3"/><circle class="st17" cx="144.3" cy="369.1" id="_x36_" r="13.3"/><circle class="st14" cx="361.2" cy="319.4" id="_x35_" r="13.3"/><circle class="st17" cx="308.5" cy="319.4" id="_x34_" r="13.3"/><circle class="st17" cx="252.8" cy="319.4" id="_x33_" r="13.3"/><circle class="st17" cx="197.1" cy="319.4" id="_x32_" r="13.3"/><circle class="st17" cx="144.3" cy="319.4" id="_x31_" r="13.3"/></g><g><line class="st3" x1="398.2" x2="398.2" y1="387.7" y2="381.5"/><line class="st3" x1="398.2" x2="398.2" y1="394.7" y2="417.9"/></g></g><g id="Top_10_"><path class="st37" d="M410.9,250.7V278H94.6v-27.3c0-11.9,9.6-21.5,21.5-21.5h273.2C401.3,229.2,410.9,238.8,410.9,250.7z"/><g><g><circle class="st53" cx="185.6" cy="248.8" r="9.7"/><circle class="st53" cx="321.3" cy="248.8" r="9.7"/></g><g><line class="st1" x1="185.6" x2="185.6" y1="212.8" y2="248.8"/><line class="st1" x1="321.3" x2="321.3" y1="212.8" y2="248.8"/></g></g><path class="st3" d="M105.7,246.4c1.5-4.2,5.5-7.2,10.2-7.2"/><g id="Lines_7_"><line class="st23" id="Bottom_10_" x1="224.6" x2="231.2" y1="259.1" y2="264.2"/><line class="st23" id="Middle_12_" x1="224.6" x2="237.7" y1="252.9" y2="262.9"/><line class="st23" id="Top_11_" x1="234.1" x2="237.7" y1="253.7" y2="256.5"/></g></g></g><g id="Alarm_clock"><circle class="st16" cx="312" cy="139.4" id="Shape_27_" r="35.5"/><g id="Alarm"><path class="st54" d="M289.8,99.1L274,116.4c-0.2,0.2-0.4,0.2-0.6,0c-4.7-4.6-4.9-12.1-0.5-16.9c4.4-4.9,11.9-5.3,16.9-1       C290,98.6,290,98.9,289.8,99.1z"/><path class="st54" d="M334.1,99.1l15.9,17.4c0.2,0.2,0.4,0.2,0.6,0c4.7-4.6,4.9-12.1,0.5-16.9c-4.4-4.9-11.9-5.3-16.9-1       C334,98.6,334,98.9,334.1,99.1z"/></g><g id="Hours"><g><g><path class="st7" d="M312,112.3c1.9,0,1.9-3,0-3C310.1,109.3,310.1,112.3,312,112.3L312,112.3z"/></g></g><g><g><path class="st7" d="M311.9,170.4c1.9,0,1.9-3,0-3C310,167.4,310,170.4,311.9,170.4L311.9,170.4z"/></g></g><g><g><path class="st7" d="M282.3,140.8c1.9,0,1.9-3,0-3C280.4,137.8,280.4,140.8,282.3,140.8L282.3,140.8z"/></g></g><g><g><path class="st7" d="M340.9,140.8c1.9,0,1.9-3,0-3C339,137.8,339,140.8,340.9,140.8L340.9,140.8z"/></g></g><g><g><path class="st7" d="M289.9,121.9c1.9,0,1.9-3,0-3C288,118.9,288,121.9,289.9,121.9L289.9,121.9z"/></g></g><g><g><path class="st7" d="M334.6,121.9c1.9,0,1.9-3,0-3C332.7,118.9,332.7,121.9,334.6,121.9L334.6,121.9z"/></g></g><g><g><path class="st7" d="M334.6,159.5c1.9,0,1.9-3,0-3C332.7,156.5,332.7,159.5,334.6,159.5L334.6,159.5z"/></g></g><g><g><path class="st7" d="M289.9,160.7c1.9,0,1.9-3,0-3C288,157.7,288,160.7,289.9,160.7L289.9,160.7z"/></g></g></g><path class="st44" d="M311.9,119.4v20.1c0,0.1,0,0.2,0.1,0.2l11.5,10.2" id="Arrows"/></g><g id="Stars"><path class="st43" d="M251.7,345.6l6.2,12.6l13.9,2c0.2,0,0.3,0.3,0.1,0.4l-10.1,9.8l2.4,13.9      c0,0.2-0.2,0.3-0.3,0.2l-12.5-6.6l-12.5,6.6c-0.2,0.1-0.4-0.1-0.3-0.2l2.4-13.9l-10.1-9.8c-0.1-0.1-0.1-0.4,0.1-0.4l13.9-2      l6.2-12.6C251.4,345.4,251.6,345.4,251.7,345.6z" id="Middle_bottom"/><path class="st43" d="M420.9,161.2l0.5,14.1l11.9,7.6c0.2,0.1,0.1,0.4,0,0.4L420,188l-3.5,13.6      c0,0.2-0.3,0.2-0.4,0.1l-8.7-11.1l-14.1,0.8c-0.2,0-0.3-0.2-0.2-0.4l7.9-11.7l-5.1-13.1c-0.1-0.2,0.1-0.4,0.3-0.3l13.5,3.9      l10.9-8.9C420.7,160.9,420.9,161,420.9,161.2z" id="Right_21_"/><path class="st43" d="M153.7,103.6l8.5,17.2l19,2.8c0.3,0,0.4,0.4,0.2,0.6l-13.7,13.4l3.2,18.9      c0,0.3-0.2,0.5-0.5,0.3l-17-8.9l-17,8.9c-0.2,0.1-0.5-0.1-0.5-0.3l3.2-18.9l-13.7-13.4c-0.2-0.2-0.1-0.5,0.2-0.6l19-2.8      l8.5-17.2C153.2,103.4,153.6,103.4,153.7,103.6z" id="Left_top"/><path class="st55" d="M83.3,186.3l5.5,11.1l12.2,1.8c0.2,0,0.2,0.2,0.1,0.4l-8.8,8.6l2.1,12.2      c0,0.2-0.1,0.3-0.3,0.2l-10.9-5.7l-10.9,5.7c-0.2,0.1-0.3,0-0.3-0.2l2.1-12.2l-8.8-8.6c-0.1-0.1-0.1-0.3,0.1-0.4l12.2-1.8      l5.5-11.1C83,186.2,83.3,186.2,83.3,186.3z" id="Left_bottom"/></g><g id="Sparkles_2_"><path class="st40" d="M461.5,217.6c-12.9-0.7-12.6-15-12.6-15c-0.3,15.8-13.3,15-13.3,15s13.3,1.3,13.3,14.6      C449,232.3,450.6,218.9,461.5,217.6" id="_x34_th"/><path class="st40" d="M273.4,188.7c-12.9-0.7-12.6-15-12.6-15c-0.3,15.8-13.3,15-13.3,15s13.3,1.3,13.3,14.6      C260.8,203.4,262.5,190,273.4,188.7" id="_x33_rd_1_"/><path class="st40" d="M253.3,168.5c-22.4-1.2-21.8-26-21.8-26c-0.6,27.3-23,26-23,26s23,2.2,23,25.4      C231.5,193.9,234.4,170.7,253.3,168.5" id="_x32_nd_1_"/><path class="st40" d="M240.4,84.7c-12.4-0.6-12.1-14.5-12.1-14.5c-0.3,15.2-12.8,14.5-12.8,14.5      s12.8,1.2,12.8,14.1C228.2,98.8,229.8,85.9,240.4,84.7" id="_x31_st_1_"/></g></g></g></svg>